<?xml version="1.0"?>
<svg xmlns="http://www.w3.org/2000/svg" height="512px" viewBox="0 -23 512 512" width="512px"><path d="m82.789062 91.320312c2.542969 0 5.089844-.964843 7.039063-2.898437l.691406-.683594c3.933594-3.871093 3.988281-10.203125.113281-14.140625-3.871093-3.9375-10.203124-3.988281-14.140624-.117187l-.746094.738281c-3.921875 3.890625-3.949219 10.222656-.058594 14.144531 1.957031 1.96875 4.527344 2.957031 7.101562 2.957031zm0 0" fill="#D80027"/><path d="m437.019531 74.980469c-48.351562-48.351563-112.640625-74.980469-181.019531-74.980469-53.1875 0-104.191406 16.160156-147.496094 46.734375-4.511718 3.1875-5.585937 9.425781-2.398437 13.9375 3.183593 4.511719 9.421875 5.585937 13.933593 2.402344 39.910157-28.179688 86.925782-43.074219 135.960938-43.074219 130.128906 0 236 105.867188 236 236v120.796875c-33.160156-21.191406-53.867188-58.226563-53.867188-98.246094v-9.988281c0-100.429688-81.703124-182.132812-182.132812-182.132812-37.796875 0-74.050781 11.472656-104.835938 33.179687-29.089843 20.511719-51.292968 48.628906-64.390624 81.492187l-66.136719 37.394532c3.128906-42.855469 17.746093-83.644532 42.738281-118.878906 3.195312-4.503907 2.132812-10.746094-2.371094-13.941407-4.503906-3.195312-10.746094-2.136719-13.941406 2.371094-30.789062 43.398437-47.0625 94.5625-47.0625 147.953125 0 3.558594 1.890625 6.847656 4.960938 8.636719 3.070312 1.792969 6.863281 1.816406 9.960937.066406l84.804687-47.957031c2.042969-1.152344 3.617188-2.988282 4.441407-5.1875 19.640625-52.289063 65.140625-90.304688 118.546875-101.632813v19.503907c-62.878906 15.042968-109.765625 71.710937-109.765625 139.132812v30.269531c0 4.164063 2.582031 7.894531 6.480469 9.359375 3.894531 1.46875 8.296874.363282 11.039062-2.769531l33.0625-37.734375h30.515625l-28.28125 46.953125c-.9375 1.558594-1.433594 3.339844-1.433594 5.160156v19.09375c0 22.515625-10.019531 43.574219-27.484375 57.777344-2.335937 1.898437-3.691406 4.75-3.691406 7.757813v51.722656c0 3.058594 1.398438 5.945312 3.796875 7.84375 1.78125 1.410156 3.972656 2.15625 6.203125 2.15625.769531 0 1.539062-.085938 2.300781-.265625l24.894531-5.878907c57.398438-13.554687 109.222657-46.046874 146.453126-91.71875h72.246093c5.519531 0 10-4.476562 10-10v-89.726562c0-67.421875-46.890625-124.089844-109.769531-139.132812v-19.558594c73.492188 15.394531 128.851562 80.695312 128.851562 158.691406v9.988281c0 53.25 31.285157 101.984375 79.703126 124.152344 1.328124.605469 2.746093.90625 4.164062.90625 1.886719 0 3.765625-.53125 5.402344-1.582031 2.863281-1.839844 4.597656-5.011719 4.597656-8.417969v-137.609375c0-68.378906-26.628906-132.667969-74.980469-181.019531zm-57.96875 193.582031v79.726562h-67.050781c-3.070312 0-5.972656 1.410157-7.867188 3.824219-34.636718 44.132813-83.78125 75.535157-138.378906 88.425781l-12.59375 2.976563v-34.488281c19.871094-17.90625 31.175782-43.199219 31.175782-70.132813v-16.316406l35.972656-59.730469c1.863281-3.089844 1.914062-6.941406.140625-10.082031-1.773438-3.136719-5.097657-5.078125-8.707031-5.078125h-52.742188c-2.882812 0-5.621094 1.242188-7.519531 3.410156l-18.53125 21.144532v-3.679688c0-67.851562 55.199219-123.050781 123.050781-123.050781s123.050781 55.199219 123.050781 123.050781zm-109.765625-142.429688c-4.375-.402343-8.804687-.621093-13.285156-.621093s-8.90625.21875-13.285156.621093v-19.148437c4.394531-.363281 8.824218-.554687 13.285156-.554687 4.472656 0 8.902344.1875 13.285156.546874zm0 0" fill="#D80027"/><path d="m246 174.550781c0 5.523438 4.476562 10 10 10h.40625.03125c5.507812 0 9.980469-4.453125 10-9.964843.019531-5.523438-4.445312-10.015626-9.964844-10.035157h-.472656c-5.523438 0-10 4.476563-10 10zm0 0" fill="#D80027"/><path d="m294.382812 193.808594c28.144532 14.484375 45.628907 43.128906 45.628907 74.753906 0 5.523438 4.476562 10 10 10 5.519531 0 10-4.476562 10-10 0-39.152344-21.640625-74.609375-56.476563-92.535156-4.910156-2.527344-10.9375-.597656-13.46875 4.3125-2.523437 4.914062-.59375 10.941406 4.316406 13.46875zm0 0" fill="#D80027"/></svg>
